grf
version=1
nRows=25
nColumns=28
inDegrees=no
endheader
time	ground_force_1_vx	ground_force_1_vy	ground_force_1_vz	ground_force_1_px	ground_force_1_py	ground_force_1_pz	ground_moment_1_mx	ground_moment_1_my	ground_moment_1_mz	ground_force_2_vx	ground_force_2_vy	ground_force_2_vz	ground_force_2_px	ground_force_2_py	ground_force_2_pz	ground_moment_2_mx	ground_moment_2_my	ground_moment_2_mz	ground_force_3_vx	ground_force_3_vy	ground_force_3_vz	ground_force_3_px	ground_force_3_py	ground_force_3_pz	ground_moment_3_mx	ground_moment_3_my	ground_moment_3_mz
      0.00000000	      0.24302090	      0.20629200	      1.97952226	    327.41635818	  -1295.58974469	      2.08523370	      0.04645303	      0.16797475	     92.04111997	      0.58327380	      0.23353344	      2.10190143	    116.38772156	  -1651.52698290	      0.20742070	     -0.00768852	     -0.09943521	    119.15057519	      1.58268569	     -0.93355253	      4.24066506	    482.70103661	   -320.14900222	      0.46434922	     -0.08072254	      0.59298184	    288.74666629
      0.01000000	      0.48486250	      0.44259819	      1.76818420	    305.10254047	  -1296.32854785	      2.09784376	      0.07511108	      0.27160262	    148.82361239	      0.51589621	      0.22495451	      2.39334026	    173.53783851	  -1662.72994411	      0.20175922	     -0.01082963	     -0.14005892	    167.82888457	      1.37192925	     -0.89206584	      4.42350608	    465.94722294	   -290.85124256	      0.39949843	     -0.09477527	      0.69621224	    339.01368877
      0.02000000	      0.37496164	      0.31644159	      2.31935266	    324.68832174	  -1270.98666471	      2.04170999	      0.04607607	      0.16661167	     91.29422597	      0.60081472	      0.22935511	      2.62181348	    182.22250675	  -1652.88597611	      0.21053475	     -0.01287301	     -0.16648590	    199.49562866	      1.37810265	     -0.89815636	      4.43508656	    465.07450881	   -272.61350517	      0.36180070	     -0.09789510	      0.71913023	    350.17338198
      0.03000000	      0.47391102	      0.38860571	      1.19357608	    232.01127720	  -1309.49677258	      2.15876480	      0.09116942	      0.32966979	    180.64129474	      0.40908582	      0.26073896	      2.24814019	    173.27119668	  -1531.08687872	      0.31160264	     -0.01451071	     -0.18766609	    224.87528793	      1.41216461	     -0.69689101	      4.17986715	    486.51571846	   -263.69270521	      0.34947473	     -0.09166182	      0.67334101	    327.87676977
      0.04000000	      0.57388952	      0.47041443	      2.13214854	    322.04706156	  -1286.70219650	      2.07172383	      0.06965950	      0.25188965	    138.02196412	      0.59154368	      0.17102371	      2.18541685	    156.26944788	  -1581.66289969	      0.26829814	     -0.01282810	     -0.16590502	    198.79957880	      1.35816427	     -0.79404746	      4.61021297	    481.11902824	   -280.10320416	      0.38166728	     -0.08942123	      0.65688184	    319.86214176
      0.05000000	      0.48451757	      0.44696124	      1.10858686	    227.05733581	  -1364.93241901	      2.26243492	      0.08540742	      0.30883434	    169.22458852	      0.46711847	      0.11576639	      2.62726929	    208.99322524	  -1662.89522251	      0.20390915	     -0.00868117	     -0.11227304	    134.53379444	      1.42343464	     -0.69577964	      4.70877592	    492.72065298	   -242.01014769	      0.30668121	     -0.12146131	      0.89224590	    434.47035094
      0.06000000	      0.37964039	      0.43661211	      1.43588890	    260.80196178	  -1348.44595760	      2.21531632	      0.07800643	      0.28207227	    154.56041679	      0.57522553	      0.28836375	      1.46840308	    -83.40662265	  -1443.04501341	      0.36851372	     -0.02083963	     -0.26951768	    322.95587005	      1.32215887	     -0.93226582	      4.28070540	    443.49672756	   -260.05036994	      0.32996821	     -0.09829238	      0.72204865	    351.59447664
      0.07000000	      0.31848394	      0.81349715	      1.09125869	    216.93907089	  -1282.12837777	      2.11642448	      0.13534701	      0.48941654	    268.17391005	      0.46363855	      0.09145462	      2.26125266	    126.93775647	  -1661.16764229	      0.20005601	     -0.00846467	     -0.10947303	    131.17861635	    -48.27984396	     83.79376083	   -179.34650162	    501.95876626	   -313.11002413	      0.45527742	      0.57459780	     -4.22095342	  -2055.35167830
      0.08000000	      0.35788147	      0.16220432	      1.62786894	    286.08495000	  -1340.02525982	      2.18718828	      0.07266401	      0.26275399	    143.97504115	      0.65086211	      0.30144761	      1.11369088	   -109.54514184	  -1543.82476848	      0.28272292	     -0.02730471	     -0.35313013	    423.14644411	   -173.98774842	    309.67637881	  -1013.33853782	    486.65579289	   -321.42385740	      0.46807292	     -0.06175347	      0.45363646	    220.89380231
      0.09000000	      0.48509768	      0.34013665	      1.79486452	    295.92714246	  -1304.09289969	      2.11664449	      0.03886886	      0.14055029	     77.01399185	      0.69089800	      0.06143695	      3.63083177	    284.38206421	  -1703.83307152	      0.17460979	     -0.00706034	     -0.09131099	    109.41553541	    -66.35474877	     85.34140061	  -1463.93701070	    469.78195248	   -310.39430056	      0.44070489	     -1.42834259	     10.49250033	   5109.21964965
      0.10000000	      0.88880770	      0.48901854	      1.66065160	    308.23673074	  -1417.63325709	      2.31764265	      0.00447026	      0.01616453	      8.85729220	      0.42649562	      0.42729934	      2.54108757	    206.91010621	  -1651.18865238	      0.21354426	     -0.01022420	     -0.13222892	    158.44639605	     84.00393987	    100.89027528	  -1713.98713249	    456.48695037	   -323.32690854	      0.46354705	      0.83618128	     -6.14252662	  -2991.04281291
      0.11000000	      0.54674126	      0.34218000	      1.17746497	    229.30093998	  -1348.63486444	      2.23155959	      0.03189522	      0.11533354	     63.19656944	      0.57289093	      0.24159662	      1.05696178	   -136.52099901	  -1415.63950840	      0.38795719	     -0.02359578	     -0.30516272	    365.66837296	     43.37315269	    363.58774815	  -1933.06821816	    456.22800960	   -349.26341318	      0.51673891	      3.39438831	    -24.93492854	 -12141.81775848
      0.12000000	      0.58565988	      0.33759502	      1.75677980	    272.78020086	  -1283.57745626	      2.09088610	      0.07536193	      0.27250971	    149.32064944	      0.55098988	      0.27866912	      2.67603717	    173.03082767	  -1653.87258074	      0.20911827	     -0.00858725	     -0.11105843	    133.07837000	     57.53891852	    318.08676505	  -2025.33008345	    454.96503588	   -360.96964260	      0.54042622	      2.80613585	    -20.61366896	 -10037.62298125
      0.13000000	      0.50423471	      0.20583027	      1.77240743	    254.12502836	  -1365.67430840	      2.25012784	      0.03469665	      0.12546355	     68.74727043	      0.72247112	      0.10190222	      2.52031865	    139.72660288	  -1598.04579401	      0.25355858	     -0.00955340	     -0.12355355	    148.05093517	     19.20546289	    286.01729407	  -2218.88486335	    455.85553699	   -366.26393980	      0.55154775	      1.49373833	    -10.97289261	  -5343.14193542
      0.14000000	      0.37473469	      0.25327510	      1.60465318	    310.08833732	  -1305.52556428	      2.11211197	      0.04626766	      0.16730447	     91.67384267	      0.65815031	      0.35301660	      2.12262022	     76.84324420	  -1566.24797551	      0.27603722	     -0.01778300	     -0.22998642	    275.58661698	    -17.66966995	    221.35174619	  -2408.94005731	    456.70607367	   -367.80737682	      0.55495519	      0.21471144	     -1.57725456	   -768.02856485
      0.15000000	      0.44432405	      0.36547510	      1.18777683	    189.36241504	  -1473.39238039	      2.47939858	      0.03821826	      0.13819773	     75.72491216	      0.62215313	      0.27246329	      1.92880727	    101.09156625	  -1588.01993575	      0.25943247	     -0.01464494	     -0.18940213	    226.95553817	    -38.36200811	    144.36955293	  -2502.12557192	    457.41392005	   -370.34318689	      0.56036072	     -0.08494653	      0.62401100	    303.85600878
      0.16000000	      0.41795694	      0.19150067	      1.57438517	    243.62953445	  -1304.41853545	      2.14363331	      0.06432078	      0.23258476	    127.44392580	      0.45029454	      0.32036620	      2.23078674	    180.42842442	  -1630.59431529	      0.22902213	     -0.01308456	     -0.16922184	    202.77403068	    -15.21607211	     82.10694433	  -2530.26216250	    456.37484708	   -374.21542891	      0.56802243	      0.64038441	     -4.70421710	  -2290.67216478
      0.17000000	      0.43695335	      0.40271009	      0.97904640	    170.11930410	  -1368.79392104	      2.29821870	      0.07132190	      0.25790091	    141.31581431	      0.58994492	      0.29986374	      2.37336065	    115.08256255	  -1592.50934673	      0.25658871	     -0.01333114	     -0.17241084	    206.59532503	     -3.98417659	     16.43265458	  -2491.37806388	    456.35068702	   -379.09256187	      0.57803155	      0.88107274	     -6.47229597	  -3151.62074568
      0.18000000	      0.46335107	      0.29899692	      1.23736820	    203.81998826	  -1419.57981891	      2.37389411	      0.05357194	      0.19371683	    106.14639343	      0.71879525	      0.17925755	      2.37233938	    157.41124673	  -1590.63339673	      0.26088563	     -0.01241040	     -0.16050292	    192.32638083	    -28.90213076	    -44.60707136	  -2394.64171171	    458.17731065	   -385.37712496	      0.59144844	     -0.03297996	      0.24226837	    117.97019740
      0.19000000	      0.40160357	      0.22548835	      1.34661898	    241.96256465	  -1357.54865435	      2.24143693	      0.07284223	      0.26339844	    144.32816306	      0.50164985	      0.43526043	      2.37640339	    149.49720430	  -1653.62049659	      0.20781007	     -0.01059401	     -0.13701173	    164.17751233	    -30.18944661	   -103.43631609	  -2272.71584151	    458.93847024	   -390.90845411	      0.60302059	     -0.92741566	      6.81272766	   3317.39060527
      0.20000000	      0.40450258	      0.20486997	      1.66201027	    322.60816382	  -1353.16153049	      2.19272871	      0.03881656	      0.14036118	     76.91036997	      0.70076251	      0.11628486	      2.45128947	    176.53179290	  -1672.38328749	      0.19389637	     -0.00815398	     -0.10545493	    126.36383739	    -22.11825334	   -166.24895371	  -2145.31589689	    458.79573533	   -394.33266309	      0.61001279	     -1.51858311	     11.15540055	   5432.01238010
      0.21000000	      0.57116200	      0.26905630	      1.21003928	    181.20063986	  -1345.93037516	      2.25090006	      0.04127742	      0.14925967	     81.78626041	      0.66124024	      0.24806830	      3.10594003	    260.74884002	  -1647.37612779	      0.22020003	     -0.01176169	     -0.15211322	    182.27323325	      1.39332738	   -241.83563370	  -1982.40889365	    457.56378010	   -395.97301793	      0.61303708	     -1.76526094	     12.96747792	   6314.38559926
      0.22000000	      0.42298903	      0.27362043	      1.22386807	    179.47494796	  -1402.00095064	      2.35409964	      0.03469613	      0.12546167	     68.74623945	      0.64343166	      0.32968463	      2.23145895	    117.38659948	  -1584.64345688	      0.26330174	     -0.01266615	     -0.16381059	    196.28987446	     21.24835748	   -293.03330612	  -1788.56296115	    456.42709647	   -397.59396629	      0.61604815	     -1.97270046	     14.49131349	   7056.40231301
      0.23000000	      0.51851092	      0.25697868	      1.80941858	    289.97179676	  -1284.45048410	      2.08380280	      0.07022225	      0.25392457	    139.13699323	      0.65764855	      0.25047153	      2.32914383	    196.92403615	  -1579.69946172	      0.27256004	     -0.01254433	     -0.16223502	    194.40191347	     41.28902100	   -320.40876556	  -1556.61267468	    455.07273146	   -399.55270846	      0.61969207	     -1.90174292	     13.97006458	   6802.58529335
      0.24000000	      0.49569890	      0.41831740	      1.78367000	    313.37148353	  -1313.20995955	      2.12447896	      0.04453009	      0.16102138	     88.23104774	      0.59110965	      0.23514028	      2.69204169	    199.20955605	  -1662.06377610	      0.20397170	     -0.01094770	     -0.14158593	    169.65865261	     58.50601289	   -330.09525648	  -1285.71202189	    453.80526610	   -401.11992317	      0.62255623	     -1.59869477	     11.74389498	   5718.57394031
